custom-analysis
version=1
nRows=9
nColumns=42
inDegrees=no

This file contains tibia displacement and acting force.

Units are S.I. units (seconds, meters, Newtons, ...)
Angles are in degrees.

endheader
time	APT	SIT	knee_angle	aACL_R_force	pACL_R_force	aPCL_R_force	pPCL_R_force	aMCL_R_force	mMCL_R_force	pMCL_R_force	aLCL_R_force	mLCL_R_force	pLCL_R_force	aACL_R_length	pACL_R_length	aPCL_R_length	pPCL_R_length	aMCL_R_length	mMCL_R_length	pMCL_R_length	aLCL_R_length	mLCL_R_length	pLCL_R_length	aACL_R_strain	pACL_R_strain	aPCL_R_strain	pPCL_R_strain	aMCL_R_strain	mMCL_R_strain	pMCL_R_strain	aLCL_R_strain	mLCL_R_strain	pLCL_R_strain	femur_lat_meniscii_force_r	femur_lat_meniscii_torque_r	femur_med_meniscii_force_r	femur_med_meniscii_torque_r	femur_lat_tibia_force_r	femur_lat_tibia_torque_r	femur_med_tibia_force_r	femur_med_tibia_torque_r
      0.00000000	      0.00000000	      0.00000000	      1.66574369	     26.23636035	     52.63551313	      0.00000000	      0.00000000	      0.00000000	      3.83340630	     15.82680930	      0.67560592	      0.00000000	      1.56026721	      0.03283933	      0.02724628	      0.02922628	      0.02963990	      0.05630769	      0.06122731	      0.06351768	      0.05657962	      0.05503431	      0.05319875	      0.05914543	      0.07443507	     -0.06010633	     -0.01488641	     -0.02962948	      0.02397939	      0.04593736	      0.01076188	     -0.02280408	      0.01635464	     24.13369588	      4.58151223	     10.59851995	      1.31438675	      0.00000000	      0.00000000	      0.00000000	      0.00000000
      0.00100000	      0.00000791	      0.00004213	      1.66574369	      0.67775245	     24.74278620	      0.00000000	      0.00000000	      0.00000000	    -44.94558092	    -32.59362333	    -63.80656835	      0.00000000	    -63.13020635	      0.03280347	      0.02720987	      0.02919051	      0.02960281	      0.05626933	      0.06118823	      0.06347903	      0.05653862	      0.05499319	      0.05315762	      0.05798871	      0.07299921	     -0.06125654	     -0.01611916	     -0.03029047	      0.02332573	      0.04530092	      0.01002944	     -0.02353412	      0.01556885	     64.76309514	     12.09868695	     29.30040596	      3.29304889	      0.00000000	      0.00000000	      0.00000000	      0.00000000
      0.00299396	      0.00006145	      0.00022186	      1.66574369	    -12.30706551	      5.39511268	      0.00000000	      0.00000000	      0.00000000	    -54.37028319	    -42.21506729	    -79.25635677	      0.00000000	    -78.13589401	      0.03264191	      0.02704160	      0.02904103	      0.02944772	      0.05611392	      0.06102822	      0.06332172	      0.05636691	      0.05482164	      0.05298618	      0.05277820	      0.06636369	     -0.06606383	     -0.02127390	     -0.03296877	      0.02064978	      0.04271039	      0.00696197	     -0.02658019	      0.01229356	    124.68562684	     23.58696293	     63.67409845	      6.51009300	      0.00000000	      0.00000000	      0.00000000	      0.00000000
      0.00498792	      0.00015354	      0.00037765	      1.66574369	     -5.41187126	      7.57985213	      0.00000000	      0.00000000	      0.00000000	    -30.88176387	    -18.96503207	    -53.46226556	      0.00000000	    -51.58516534	      0.03249528	      0.02688145	      0.02890914	      0.02931197	      0.05599341	      0.06090128	      0.06319908	      0.05621909	      0.05467547	      0.05284052	      0.04804874	      0.06004843	     -0.07030530	     -0.02578548	     -0.03504567	      0.01852677	      0.04069095	      0.00432125	     -0.02917554	      0.00951074	    150.55900266	     29.80294553	     84.39508006	      3.55212464	      0.00000000	      0.00000000	     41.71253589	      0.97284767
      0.00644424	      0.00023856	      0.00044569	      1.66574369	      3.26662189	     14.24825438	      0.00000000	      0.00000000	      0.00000000	    -10.90875817	      1.00035751	    -31.60071912	      0.00000000	    -29.20882716	      0.03243024	      0.02680401	      0.02884522	      0.02924781	      0.05595305	      0.06085613	      0.06315774	      0.05615245	      0.05461103	      0.05277669	      0.04595133	      0.05699456	     -0.07236063	     -0.02791808	     -0.03574109	      0.01777166	      0.04001025	      0.00313069	     -0.03031974	      0.00829126	    145.77156074	     30.03887484	     87.74739575	      2.30625119	      0.00000000	      0.00000000	     85.82696155	      2.03501113
      0.00788245	      0.00033281	      0.00048200	      1.66574369	      9.13686631	     19.02154688	      0.00000000	      0.00000000	      0.00000000	      0.28220705	     12.28062294	    -20.50457701	      0.00000000	    -17.82099850	      0.03239721	      0.02675777	      0.02880231	      0.02920655	      0.05594436	      0.06084291	      0.06314864	      0.05611277	      0.05457414	      0.05274053	      0.04488576	      0.05517128	     -0.07374085	     -0.02928942	     -0.03589082	      0.01755052	      0.03986030	      0.00242195	     -0.03097490	      0.00760041	    144.34082336	     30.42815737	     90.22513136	      5.74024904	      0.00000000	      0.00000000	     83.41966388	      1.99031239
      0.00932065	      0.00043184	      0.00050340	      1.66574369	     12.38544639	     21.75081681	      0.00000000	      0.00000000	      0.00000000	      4.55584582	     16.61553087	    -17.10103969	      0.00000000	    -14.36170223	      0.03238242	      0.02672997	      0.02876705	      0.02917412	      0.05595001	      0.06084434	      0.06315433	      0.05608376	      0.05454817	      0.05271535	      0.04440892	      0.05407492	     -0.07487458	     -0.03036727	     -0.03579355	      0.01757449	      0.03995401	      0.00190362	     -0.03143603	      0.00711936	    149.61121757	     32.01066096	     96.63744065	      8.60076412	      0.00000000	      0.00000000	     65.19809670	      1.58084284
      0.01089048	      0.00053818	      0.00051997	      1.66574369	     14.46444878	     23.68354037	      0.00000000	      0.00000000	      0.00000000	      6.02365635	     18.03526969	    -16.08949590	      0.00000000	    -13.50925934	      0.03237740	      0.02671190	      0.02873079	      0.02914157	      0.05596119	      0.06085143	      0.06316593	      0.05605524	      0.05452295	      0.05269097	      0.04424690	      0.05336229	     -0.07604070	     -0.03144892	     -0.03560081	      0.01769307	      0.04014513	      0.00139415	     -0.03188386	      0.00665360	    154.08724884	     32.75330766	    103.88981018	     10.95080514	      0.00000000	      0.00000000	     45.43379889	      1.12110211
      0.01246031	      0.00063644	      0.00053353	      1.66574369	     15.45164647	     24.76616052	      0.00000000	      0.00000000	      0.00000000	      5.63718965	     17.50875758	    -16.39221527	      0.00000000	    -14.11278232	      0.03237859	      0.02670182	      0.02869569	      0.02911037	      0.05597268	      0.06085945	      0.06317806	      0.05602723	      0.05449796	      0.05266674	      0.04428552	      0.05296500	     -0.07716958	     -0.03248608	     -0.03540275	      0.01782721	      0.04034490	      0.00089377	     -0.03232756	      0.00619068	    155.24412585	     32.52996495	    109.97256094	     12.27633094	      0.00000000	      0.00000000	     30.74738252	      0.76077631
